<?xml version="1.0" encoding="utf-8"?>
<!-- Generator: Adobe Illustrator 24.2.0, SVG Export Plug-In . SVG Version: 6.00 Build 0)  -->
<svg version="1.1" id="Layer_1" xmlns="http://www.w3.org/2000/svg" xmlns:xlink="http://www.w3.org/1999/xlink" x="0px" y="0px"
	 viewBox="0 0 2204 538.1" style="enable-background:new 0 0 2204 538.1;" xml:space="preserve">
<style type="text/css">
	.st0{fill:rgb(37, 51, 57);}
	.st1{fill:#00AF73;}
</style>
<g>

	<g>
		<g>
			<path class="st1" d="M337.9,83.8c5.7-8.5,0.5-19.3-9.4-19.3h-89.8h-40h-29.4c-33.5,0-60.2,8.9-79.9,26.7
				c-19.7,17.7-31,43.1-34,76.3h0l-7.6,86.8h0c-2.8,33.2,4.1,58.6,20.7,76.3c16.7,17.8,41.8,26.7,75.3,26.7h36.4l0-0.2
				c7.2-1,11.1-5.4,11.8-13.1l3.7-42.6c0.7-7.7-5-14-12.8-14h-20.2c-13.1,0-22.3-2.9-27.6-8.6c-5.2-5.7-7.2-15.4-6.1-29l6.8-77.8
				c1.2-13.6,4.9-23.2,11.1-28.9c6.2-5.7,15.9-8.6,29.1-8.6h16.6h26.6h64.2c12.7,0,25-6.7,32.3-17.7L337.9,83.8z"/>
			<path class="st1" d="M32.1,454.3c-5.7,8.5-0.5,19.3,9.4,19.3h92.1h40H203c33.5,0,60.2-8.9,79.9-26.7c19.7-17.7,31-43.1,34-76.3h0
				l7.6-86.8h0c2.8-33.2-4.1-58.6-20.7-76.3c-16.7-17.8-41.8-26.7-75.3-26.7h-36.4l0,0.2c-7.2,1-11.1,5.4-11.8,13.1l-3.7,42.6
				c-0.7,7.7,5,14,12.8,14h20.2c13.1,0,22.3,2.9,27.6,8.6c5.2,5.7,7.2,15.4,6.1,28.9l-6.8,77.8c-1.2,13.6-4.9,23.2-11.1,28.9
				c-6.2,5.7-15.9,8.6-29.1,8.6h-16.6h-26.6H86.6c-12.7,0-25,6.7-32.3,17.7L32.1,454.3z"/>
		</g>
		<path class="st0" d="M579.8,473.6h-208c-8.9,0-13-4.4-12.2-13.4L393,77.9c0.8-8.9,5.6-13.4,14.5-13.4h208
			c8.5,0,12.3,4.4,11.6,13.4l-3.8,43.3c-0.8,8.9-5.4,13.4-13.9,13.4H476.5c-5.1,0-7.8,2.3-8.2,7l-7.2,82.7c-0.4,4.7,1.9,7,7,7h108.8
			c8.9,0,13,4.5,12.2,13.4l-3.8,43.3c-0.8,8.9-5.6,13.4-14.5,13.4H461.9c-5.1,0-7.8,2.3-8.2,7l-7.7,88.4c-0.4,4.7,1.9,7,7,7h132.9
			c8.5,0,12.3,4.5,11.6,13.4l-3.8,43.3C592.9,469.1,588.3,473.6,579.8,473.6"/>
		<path class="st0" d="M804.2,473.6h-69.3c-33.5,0-58.6-8.9-75.3-26.7c-16.7-17.8-23.6-43.5-20.6-77l17.6-201.7
			c2.9-33.5,14.3-59.2,34.1-77c19.8-17.8,46.4-26.7,79.9-26.7h69.3c33.1,0,58.1,9,74.9,27c16.9,18,23.9,43.6,21,76.6l-2.6,29.9
			c-0.8,9.3-5.9,14-15.2,14h-53.4c-8.9,0-13-4.7-12.1-14l2.3-26.1c1.2-13.6-0.8-23.2-6.1-28.9c-5.2-5.7-14.6-8.6-28.2-8.6h-43.3
			c-13.1,0-22.8,2.9-29.1,8.6c-6.2,5.7-9.9,15.4-11.1,28.9l-17,194c-1.2,13.6,0.8,23.2,6.1,28.9c5.2,5.7,14.4,8.6,27.6,8.6h43.3
			c13.6,0,23.5-2.9,29.7-8.6c6.2-5.7,9.9-15.4,11.1-28.9L840,340c0.8-9.3,5.7-14,14.6-14H908c9.3,0,13.6,4.7,12.8,14l-2.6,29.9
			c-2.9,33.1-14.4,58.6-34.4,76.6C863.8,464.6,837.2,473.6,804.2,473.6"/>
		<path class="st0" d="M1099.7,473.6h-53.4c-9.3,0-13.6-4.4-12.8-13.4l27.9-318.7c0.4-4.7-1.7-7-6.4-7h-72.5
			c-8.9,0-13-4.4-12.2-13.4l3.8-43.3c0.8-8.9,5.6-13.4,14.5-13.4H1229c8.9,0,13,4.4,12.2,13.4l-3.8,43.3
			c-0.8,8.9-5.6,13.4-14.5,13.4h-72.5c-5.1,0-7.8,2.3-8.2,7l-27.9,318.7C1113.5,469.1,1108.6,473.6,1099.7,473.6"/>
		<path class="st0" d="M1363.3,77.9l-33.5,382.3c-0.8,8.9-5.6,13.4-14.5,13.4h-54.1c-8.9,0-13-4.5-12.2-13.4l33.5-382.3
			c0.8-8.9,5.6-13.4,14.5-13.4h54.1C1360,64.5,1364,69,1363.3,77.9"/>
		<path class="st0" d="M1830.2,403.6h45.2c13.6,0,23.5-2.9,29.7-8.6c6.2-5.7,9.9-15.4,11.1-28.9l17-194c1.2-13.6-0.8-23.2-6.1-28.9
			c-5.2-5.7-14.6-8.6-28.2-8.6h-45.2c-13.6,0-23.4,2.9-29.4,8.6c-6,5.7-9.6,15.4-10.8,28.9l-17,194c-1.2,13.6,0.7,23.2,5.7,28.9
			C1807.3,400.7,1816.6,403.6,1830.2,403.6 M1882.6,473.6h-71.2c-33.5,0-58.6-8.9-75.3-26.7c-16.7-17.8-23.6-43.5-20.6-77
			l17.6-201.7c2.9-33.5,14.3-59.2,34.1-77c19.8-17.8,46.4-26.7,79.9-26.7h71.2c33.5,0,58.6,8.9,75.3,26.7
			c16.7,17.8,23.6,43.5,20.6,77l-17.6,201.7c-2.9,33.5-14.3,59.2-34.1,77C1942.7,464.7,1916.1,473.6,1882.6,473.6"/>
		<path class="st0" d="M1612.3,201.3h54.1c8.9,0,13.8-4.7,14.6-14l1.7-19.1c2.9-33.1-4-58.6-20.6-76.7c-16.7-18-41.5-27-74.6-27
			h-67.4c-33.5,0-60.2,8.9-79.9,26.7c-19.8,17.8-31.2,43.5-34.1,77l-17.6,201.7c-2.9,33.5,3.9,59.2,20.6,77
			c16.7,17.8,41.8,26.7,75.3,26.7h67.4c33.1,0,59.5-9,79.3-27c19.8-18,31.2-43.6,34.1-76.7l9.3-106.2c0.9-9.8-3.6-14.6-13.4-14.6
			h-111.3H1535c-9.9,0-17,10.7-12.8,19.3l16.4,33c5.4,10.9,16.6,17.7,29.2,17.7h13.8c4.7,0,6.8,2.3,6.4,7l-3.5,40.1
			c-1.2,13.6-4.8,23.2-10.8,29c-6,5.7-15.8,8.6-29.4,8.6H1503c-13.1,0-22.3-2.9-27.6-8.6c-5.2-5.7-7.2-15.4-6.1-29l17-194
			c1.2-13.6,4.9-23.2,11.1-28.9c6.2-5.7,15.9-8.6,29.1-8.6h41.4c13.6,0,22.9,2.9,27.9,8.6c5,5.7,6.9,15.4,5.7,28.9l-1.3,15.3
			C1599.3,196.6,1603.4,201.3,1612.3,201.3"/>
	</g>
</g>
</svg>
