<svg id="Layer_1" data-name="Layer 1" xmlns="http://www.w3.org/2000/svg" viewBox="0 0 170.08 25.95">
    <defs>
        <style>
            .cls-1 {
                fill: #df1b54;
            }

            .cls-2 {
                fill: #26235d;
            }
        </style>
    </defs>
    <path class="cls-1" d="M7.81,1.86l4.33,4.39A1.31,1.31,0,0,0,14,4.41L10.23.53C9.73,0,8.85.48,8.29.68S7.31,1.36,7.81,1.86Z" />
    <path class="cls-1" d="M22.18,8.8A1.31,1.31,0,0,0,24,7L18.28,1.28A4.78,4.78,0,0,0,16,.3,12.81,12.81,0,0,0,14.54,0a.53.53,0,0,0-.61.24A.47.47,0,0,0,14,.77Z" />
    <path class="cls-1" d="M22.38,20.74,5,3.36c-.5-.5-1-.08-1.43.31s-1,1-.42,1.53L20.54,22.59c.49.48,1,.1,1.38-.27S23,21.32,22.38,20.74Z" />
    <path class="cls-1" d="M17.77,24.09,13.43,19.7a1.3,1.3,0,0,0-1.84,1.84l3.75,3.88c.5.51,1.39,0,1.94-.15S18.26,24.59,17.77,24.09Z" />
    <path class="cls-1" d="M3.39,17.15A1.31,1.31,0,0,0,1.55,19L7.3,24.67a4.73,4.73,0,0,0,2.24,1,12.42,12.42,0,0,0,1.5.29c.24,0,.48,0,.6-.24a.44.44,0,0,0-.09-.52Z" />
    <path class="cls-2" d="M38.32,12.11c-1.57-.38-2.93-.7-2.93-1.91s1.49-1.8,2.89-1.8A8.32,8.32,0,0,1,41,8.84a.78.78,0,0,0,.32.08.83.83,0,0,0,.81-.84.81.81,0,0,0-.56-.81,10,10,0,0,0-3.42-.57c-3.13,0-4.53,1.82-4.53,3.62,0,2.45,2.33,3,4.39,3.58,1.51.39,2.82.72,2.82,1.71,0,1.23-.92,1.83-2.83,1.83a8.16,8.16,0,0,1-3.3-.69,1,1,0,0,0-.37-.08.83.83,0,0,0-.83.85.9.9,0,0,0,.55.81,10.29,10.29,0,0,0,4.1.83c2.63,0,4.48-1.42,4.48-3.44C42.59,13.13,40.32,12.59,38.32,12.11Z" />
    <path class="cls-2" d="M55.52,6.79a.9.9,0,0,0-.9.91v6.76a3.2,3.2,0,0,1-6.39,0V7.7a.93.93,0,0,0-.91-.91.9.9,0,0,0-.9.91v6.71a4.74,4.74,0,0,0,5,4.75,4.73,4.73,0,0,0,5-4.75V7.7A.93.93,0,0,0,55.52,6.79Z" />
    <path class="cls-2" d="M69.24,6.87H60.78a.85.85,0,0,0-.84.87.82.82,0,0,0,.84.84h3.34v9.6a.9.9,0,0,0,.89.9.91.91,0,0,0,.92-.9V8.58h3.31a.84.84,0,0,0,.86-.84A.86.86,0,0,0,69.24,6.87Z" />
    <path class="cls-2" d="M82.52,6.79a.9.9,0,0,0-.89.91v4.39H75.46V7.7a.93.93,0,0,0-.92-.91.9.9,0,0,0-.89.91V18.18a.9.9,0,0,0,.89.9.91.91,0,0,0,.92-.9V13.8h6.17v4.38a.9.9,0,0,0,.89.9.91.91,0,0,0,.92-.9V7.7A.93.93,0,0,0,82.52,6.79Z" />
    <path class="cls-2" d="M96.11,8.58A.84.84,0,0,0,97,7.74a.86.86,0,0,0-.86-.87H89.3a.91.91,0,0,0-.9.92v10.3a.9.9,0,0,0,.9.9h6.81a.86.86,0,1,0,0-1.71h-5.9v-3.5h5.28a.86.86,0,1,0,0-1.71H90.21V8.58Z" />
    <path class="cls-2" d="M110.56,10.45c0-2.27-1.73-3.58-4.75-3.58h-4a.91.91,0,0,0-.9.92V18.18a.91.91,0,0,0,1.81,0V14.37h3.38c2.22,0,2.5,1.76,2.5,3.3v.51a.87.87,0,0,0,.92.9.9.9,0,0,0,.89-.9V17.4c0-.76-.14-3.15-1.87-3.88A3.29,3.29,0,0,0,110.56,10.45Zm-1.81.12c0,1.3-1.13,2.08-3,2.08h-2.94V8.6h2.86C108.4,8.6,108.75,9.65,108.75,10.57Z" />
    <path class="cls-2" d="M122.3,17.18h-5.42V7.7a.91.91,0,1,0-1.81,0V17.79a1.21,1.21,0,0,0,1.21,1.2h6a.91.91,0,0,0,.92-.9A.93.93,0,0,0,122.3,17.18Z" />
    <path class="cls-2" d="M133,7.57a1.2,1.2,0,0,0-1.11-.78h-.17a1.21,1.21,0,0,0-1.11.78l-4.32,10.22a.9.9,0,0,0-.1.39.87.87,0,0,0,.9.9.92.92,0,0,0,.85-.56L129,16h5.59l1.07,2.57a.93.93,0,0,0,.86.56.86.86,0,0,0,.89-.9,1,1,0,0,0-.09-.39Zm.9,6.71h-4.19l2.1-5Z" />
    <path class="cls-2" d="M150.76,6.79a.9.9,0,0,0-.89.91v8.75l-6.3-9.1a1.33,1.33,0,0,0-1-.56h-.22A1.25,1.25,0,0,0,141.07,8V18.18a.91.91,0,0,0,1.81,0V9.42l6.33,9.14a1.27,1.27,0,0,0,1,.52h.2a1.25,1.25,0,0,0,1.26-1.24V7.7A.93.93,0,0,0,150.76,6.79Z" />
    <path class="cls-2" d="M165.57,8.81A6,6,0,0,0,161,6.87h-3.41a.91.91,0,0,0-.9.92v10.3a.9.9,0,0,0,.9.9H161a6,6,0,0,0,4.62-1.94,6.38,6.38,0,0,0,0-8.24Zm-.29,4.12a4.2,4.2,0,0,1-4.52,4.35h-2.31V8.58h2.31A4.2,4.2,0,0,1,165.28,12.93Z" />
    <path class="cls-2" d="M16.35,7.4a8.91,8.91,0,0,0-1.55,0,.66.66,0,0,0-.6.39.65.65,0,0,0,.15.71L24,17.79a.6.6,0,0,0,.5.18.57.57,0,0,0,.55-.41,14.09,14.09,0,0,0,.44-1.44.89.89,0,0,0-.19-.81l-.07-.07L17.44,7.89A1.74,1.74,0,0,0,16.35,7.4Z" />
    <path class="cls-2" d="M9.12,18.54a8,8,0,0,0,1.55,0,.65.65,0,0,0,.6-.38.64.64,0,0,0-.15-.71l-9.6-9.3A.58.58,0,0,0,1,8a.57.57,0,0,0-.55.41A14.9,14.9,0,0,0,0,9.82a.91.91,0,0,0,.2.82l.06.07L8,18.06A1.73,1.73,0,0,0,9.12,18.54Z" />


</svg>